<?xml version="1.0" standalone="no"?>
<!DOCTYPE svg PUBLIC "-//W3C//DTD SVG 20010904//EN"
 "http://www.w3.org/TR/2001/REC-SVG-20010904/DTD/svg10.dtd">
<svg version="1.0" xmlns="http://www.w3.org/2000/svg"
 width="2000.000000pt" height="2000.000000pt" viewBox="0 0 2000.000000 2000.000000"
 preserveAspectRatio="xMidYMid meet">
<metadata>
Created by potrace 1.14, written by Peter Selinger 2001-2017
</metadata>
<g transform="translate(0.000000,2000.000000) scale(0.100000,-0.100000)"
fill="#000000" stroke="none">
<path d="M1129 19996 c-2 -2 -26 -6 -54 -10 -70 -8 -105 -15 -143 -27 -18 -6
-39 -12 -45 -13 -7 -2 -21 -6 -32 -10 -11 -5 -33 -13 -50 -18 -61 -22 -203
-97 -271 -144 -137 -94 -301 -279 -386 -434 -60 -110 -114 -273 -136 -410 -9
-57 -9 -17800 0 -17855 60 -368 246 -661 546 -864 152 -102 319 -167 517 -199
53 -9 17787 -9 17845 0 151 23 261 58 392 123 360 180 610 525 675 930 4 28 8
4055 8 8950 0 8552 -1 8903 -18 8980 -59 262 -162 451 -347 636 -137 137 -250
212 -426 282 -95 38 -98 39 -244 68 -92 18 -371 18 -8961 19 -4876 0 -8868 -2
-8870 -4z m2621 -2496 l0 -1250 -1250 0 -1250 0 0 1250 0 1250 1250 0 1250 0
0 -1250z m6159 1245 c-3 -2 -23 -7 -44 -11 -22 -3 -58 -13 -80 -22 -213 -84
-357 -257 -401 -482 -4 -19 -8 -3363 -9 -7430 -2 -4067 -3 -7399 -4 -7403 0
-4 -898 889 -1994 1985 -1469 1469 -2008 2002 -2049 2026 -90 53 -212 90 -300
92 l-28 0 0 5625 0 5625 2457 0 c1351 0 2454 -2 2452 -5z m5091 -5619 l0
-5623 -57 -6 c-117 -13 -200 -43 -291 -103 -31 -20 -897 -878 -2025 -2007
-1085 -1085 -1979 -1977 -1987 -1984 -13 -10 -15 809 -15 7375 1 7508 1 7441
-34 7550 -12 40 -76 159 -96 178 -7 8 -22 24 -32 37 -53 65 -185 151 -273 176
-25 8 -56 17 -70 21 -14 5 1079 9 2428 9 l2452 1 0 -5624z m3750 4374 l0
-1250 -1250 0 -1250 0 0 1250 0 1250 1250 0 1250 0 0 -1250z m-15000 -3750 l0
-1250 -1250 0 -1250 0 0 1250 0 1250 1250 0 1250 0 0 -1250z m15000 0 l0
-1250 -1250 0 -1250 0 0 1250 0 1250 1250 0 1250 0 0 -1250z m-15000 -3750 l0
-1250 -1250 0 -1250 0 0 1250 0 1250 1250 0 1250 0 0 -1250z m15000 0 l0
-1250 -1250 0 -1250 0 0 1250 0 1250 1250 0 1250 0 0 -1250z m-15000 -3750 l0
-1250 -1250 0 -1250 0 0 1250 0 1250 1250 0 1250 0 0 -1250z m15000 0 l0
-1250 -1250 0 -1250 0 0 1250 0 1250 1250 0 1250 0 0 -1250z m-9116 -4880 c60
-46 146 -86 225 -105 48 -11 -311 -13 -2401 -14 l-2458 -1 0 2371 0 2370 2291
-2291 c1261 -1260 2315 -2309 2343 -2330z m5366 2245 l0 -2365 -2457 1 c-2145
1 -2451 2 -2399 15 76 18 180 68 235 112 23 19 1070 1062 2325 2318 1254 1255
2284 2283 2289 2283 4 1 7 -1063 7 -2364z m-11250 -1115 l0 -1250 -1250 0
-1250 0 0 1250 0 1250 1250 0 1250 0 0 -1250z m15000 0 l0 -1250 -1250 0
-1250 0 0 1250 0 1250 1250 0 1250 0 0 -1250z"/>
</g>
</svg>
